HIERARCHY
ROOT hip
{
	OFFSET 0.000000 0.000000 0.000000
	CHANNELS 6 Xposition Yposition Zposition Zrotation Yrotation Xrotation 
	JOINT lhipjoint
	{
		OFFSET 0.000000 0.000000 0.000000
		CHANNELS 3 Zrotation Yrotation Xrotation
		JOINT lfemur
		{
			OFFSET 1.363060 -1.794630 0.839290
			CHANNELS 3 Zrotation Yrotation Xrotation
			JOINT ltibia
			{
				OFFSET 2.448110 -6.726130 0.000000
				CHANNELS 3 Zrotation Yrotation Xrotation
				JOINT lfoot
				{
					OFFSET 2.562200 -7.039590 0.000000
					CHANNELS 3 Zrotation Yrotation Xrotation
					JOINT ltoes
					{
						OFFSET 0.157640 -0.433110 2.322550
						CHANNELS 3 Zrotation Yrotation Xrotation
						End Site
						{
							OFFSET 0.000000 0.000000 0.000000
						}
					}
				}
			}
		}
	}
	JOINT rhipjoint
	{
		OFFSET 0.000000 0.000000 0.000000
		CHANNELS 3 Zrotation Yrotation Xrotation
		JOINT rfemur
		{
			OFFSET -1.305520 -1.794630 0.839290
			CHANNELS 3 Zrotation Yrotation Xrotation
			JOINT rtibia
			{
				OFFSET -2.542530 -6.985550 0.000000
				CHANNELS 3 Zrotation Yrotation Xrotation
				JOINT rfoot
				{
					OFFSET -2.568260 -7.056230 0.000000
					CHANNELS 3 Zrotation Yrotation Xrotation
					JOINT rtoes
					{
						OFFSET -0.164730 -0.452590 2.363150
						CHANNELS 3 Zrotation Yrotation Xrotation
						End Site
						{
							OFFSET 0.000000 0.000000 0.000000
						}
					}
				}
			}
		}
	}
	JOINT lowerback
	{
		OFFSET 0.000000 0.000000 0.000000
		CHANNELS 3 Zrotation Yrotation Xrotation
		JOINT upperback
		{
			OFFSET 0.028270 2.035590 -0.193380
			CHANNELS 3 Zrotation Yrotation Xrotation
			JOINT thorax
			{
				OFFSET 0.056720 2.048850 -0.042750
				CHANNELS 3 Zrotation Yrotation Xrotation
				JOINT lowerneck
				{
					OFFSET 0.000000 0.000000 0.000000
					CHANNELS 3 Zrotation Yrotation Xrotation
					JOINT upperneck
					{
						OFFSET -0.054170 1.746240 0.172020
						CHANNELS 3 Zrotation Yrotation Xrotation
						JOINT head
						{
							OFFSET 0.104070 1.761360 -0.123970
							CHANNELS 3 Zrotation Yrotation Xrotation
							End Site
							{
								OFFSET 0.000000 0.000000 0.000000
							}
						}
					}
				}
				JOINT lclavicle
				{
					OFFSET 0.000000 0.000000 0.000000
					CHANNELS 3 Zrotation Yrotation Xrotation
					JOINT lhumerus
					{
						OFFSET 3.362410 1.200890 -0.311210
						CHANNELS 3 Zrotation Yrotation Xrotation
						JOINT lradius
						{
							OFFSET 4.983000 -0.000000 -0.000000
							CHANNELS 3 Zrotation Yrotation Xrotation
							JOINT lwrist
							{
								OFFSET 3.483560 -0.000000 -0.000000
								CHANNELS 3 Zrotation Yrotation Xrotation
								JOINT lhand
								{
									OFFSET 0.000000 0.000000 0.000000
									CHANNELS 3 Zrotation Yrotation Xrotation
									JOINT lfingers
									{
										OFFSET 0.715260 -0.000000 -0.000000
										CHANNELS 3 Zrotation Yrotation Xrotation
										End Site
										{
											OFFSET 0.000000 0.000000 0.000000
										}
									}
								}
								JOINT lthumb
								{
									OFFSET 0.000000 0.000000 0.000000
									CHANNELS 3 Zrotation Yrotation Xrotation
									End Site
									{
										OFFSET 0.000000 0.000000 0.000000
									}
								}
							}
						}
					}
				}
				JOINT rclavicle
				{
					OFFSET 0.000000 0.000000 0.000000
					CHANNELS 3 Zrotation Yrotation Xrotation
					JOINT rhumerus
					{
						OFFSET -3.136600 1.374050 -0.404650
						CHANNELS 3 Zrotation Yrotation Xrotation
						JOINT rradius
						{
							OFFSET -5.241900 -0.000000 -0.000000
							CHANNELS 3 Zrotation Yrotation Xrotation
							JOINT rwrist
							{
								OFFSET -3.444170 -0.000000 -0.000000
								CHANNELS 3 Zrotation Yrotation Xrotation
								JOINT rhand
								{
									OFFSET 0.000000 0.000000 0.000000
									CHANNELS 3 Zrotation Yrotation Xrotation
									JOINT rfingers
									{
										OFFSET -0.622530 -0.000000 -0.000000
										CHANNELS 3 Zrotation Yrotation Xrotation
										End Site
										{
											OFFSET 0.000000 0.000000 0.000000
										}
									}
								}
								JOINT rthumb
								{
									OFFSET 0.000000 0.000000 0.000000
									CHANNELS 3 Zrotation Yrotation Xrotation
									End Site
									{
										OFFSET 0.000000 0.000000 0.000000
									}
								}
							}
						}
					}
				}
			}
		}
	}
}
MOTION
Frames: 12
Frame Time: 0.008333
-2.595739 14.858610 4.636810 179.105490 -12.412190 167.397585 3.266995 2.503441 0.614558 2.437586 -5.949833 3.373049 4.114350 10.843354 36.555244 3.933226 -18.319691 0.475734 6.965800 -15.303000 -48.744800 -3.925556 -1.119455 -3.152928 -0.946566 4.074123 14.833358 -5.777549 -12.704398 40.370942 -0.698030 -1.113953 -16.704657 -4.709500 13.049000 -39.552200 -1.624171 -1.459119 18.694523 0.865057 -2.348351 -3.914841 3.316241 -0.749502 -7.143706 -13.173318 -6.398175 -6.808128 10.548028 -10.105327 6.704152 4.746500 -4.713400 0.244300 -2.411565 -12.086893 2.719940 60.823824 -13.179771 -40.685306 25.297569 -41.049320 -5.978472 0.802618 -0.379018 -49.059247 47.434100 0.832727 2.267100 -7.125000 0.000000 0.000000 16.596400 32.732700 -5.175900 6.095713 10.777468 3.539401 -64.470647 18.922324 -49.671847 -28.658611 50.519383 -8.945557 -0.797363 0.488363 -59.122717 -52.071587 19.563775 -21.696600 7.125000 0.000000 0.000000 -14.870600 -2.833500 -14.625700 
-2.605509 15.056816 4.598794 179.080738 -12.069377 167.811368 3.285937 2.520006 0.636238 1.835745 -5.970167 4.962611 3.471119 9.953537 33.664983 3.629265 -16.164769 1.869967 7.290700 -15.571900 -49.965300 -3.968379 -1.143014 -3.169188 -0.143441 4.705852 15.479769 -5.434819 -12.192233 38.584285 -0.436047 -1.939789 -14.556845 -4.645500 12.973100 -39.267900 -1.560138 -1.449972 17.652980 0.852120 -2.296012 -3.934721 3.169820 -0.722306 -6.847755 -12.932130 -6.317235 -6.871921 10.412054 -9.982238 6.972256 4.653500 -4.654100 0.259000 -2.280629 -12.076859 2.762402 59.030574 -13.195028 -38.581204 25.170349 -40.560800 -5.928430 0.778421 -0.465286 -49.049754 46.974729 0.551320 1.983700 -7.125000 0.000000 0.000000 16.240400 32.390300 -5.196600 5.960203 10.796551 3.469777 -62.279472 18.578164 -46.583469 -28.901693 50.235597 -9.062474 -0.784031 0.512395 -59.635799 -52.090312 19.145455 -21.274200 7.125000 0.000000 0.000000 -15.015400 -3.412100 -14.614400 
-2.612764 15.272918 4.574030 179.153223 -11.800816 168.266936 3.304077 2.538557 0.676748 1.232471 -6.271500 6.627056 2.790564 8.925048 30.410694 3.207418 -13.628546 4.030969 7.463400 -15.710000 -50.605800 -4.028921 -1.182336 -3.170874 0.743253 5.253291 15.937914 -5.112227 -11.675119 36.821918 -0.150981 -2.876428 -11.827210 -4.566000 12.877700 -38.912500 -1.387811 -1.464758 16.743464 0.846829 -2.262794 -3.966728 3.010264 -0.704116 -6.668741 -12.651138 -6.268093 -6.977385 10.261602 -9.878640 7.220526 4.526600 -4.605900 0.302200 -2.138992 -12.095057 2.795547 57.184392 -13.113210 -36.262550 25.196474 -40.210781 -5.969496 0.750667 -0.539608 -49.332345 46.852271 0.977526 2.473400 -7.125000 0.000000 0.000000 16.313800 33.039700 -4.955000 5.828206 10.868000 3.379390 -59.982629 18.055610 -43.309176 -29.146812 49.903781 -9.201272 -0.770899 0.541871 -60.508653 -51.878647 18.614500 -20.577700 7.125000 0.000000 0.000000 -15.061600 -4.245400 -14.422500 
-2.615183 15.513010 4.543559 179.277025 -11.656567 168.763792 3.324140 2.565010 0.725544 0.650363 -6.730211 8.288485 2.138368 7.809917 26.955539 2.691145 -10.716383 6.783379 7.450200 -15.699500 -50.557100 -4.105317 -1.232466 -3.166221 1.781879 5.768631 16.325292 -4.831385 -11.169363 35.150480 0.155124 -4.329526 -8.965693 -4.614700 12.936300 -39.130500 -1.227831 -1.529784 15.779072 0.850363 -2.300662 -3.999112 2.885714 -0.722671 -6.443383 -12.347314 -6.234528 -7.190662 10.100944 -9.776405 7.504860 4.372900 -4.557600 0.385400 -1.990422 -12.101039 2.810962 55.378646 -12.902026 -33.562894 25.415562 -40.017282 -6.113474 0.722457 -0.604488 -50.111365 47.078698 2.015739 3.649600 -7.125000 0.000000 0.000000 16.816200 34.555100 -4.474100 5.709993 10.941158 3.279932 -57.654950 17.450561 -40.084806 -29.322624 49.482846 -9.323482 -0.756422 0.576441 -61.601047 -51.411107 18.015277 -19.654300 7.125000 0.000000 0.000000 -14.977900 -5.268500 -14.038500 
-2.613441 15.779123 4.509993 179.518893 -11.635204 169.258300 3.346677 2.606559 0.774417 0.118735 -7.417383 9.893222 1.582322 6.689616 23.493100 2.045707 -7.123546 9.708069 7.356800 -15.625100 -50.211000 -4.210482 -1.300057 -3.150801 3.141419 6.388837 16.721221 -4.609852 -10.683514 33.611710 0.507231 -6.531198 -6.030810 -4.514900 12.815700 -38.682600 -0.995641 -1.640266 14.778827 0.864945 -2.390029 -4.026249 2.773096 -0.774269 -6.130322 -12.057168 -6.274468 -7.562788 9.707995 -9.704325 7.872774 4.563700 -4.526400 0.581400 -1.837572 -12.067065 2.826053 53.553469 -12.692569 -31.080034 25.631360 -39.835889 -6.282936 0.686739 -0.673211 -50.775867 47.338862 3.407624 5.222500 -7.125000 0.000000 0.000000 17.452900 36.563500 -3.763300 5.597714 11.017940 3.185505 -55.107853 16.805561 -37.068290 -29.505410 49.025888 -9.486029 -0.725024 0.619682 -62.435120 -50.720636 17.333817 -18.549000 7.125000 0.000000 0.000000 -14.780100 -6.450300 -13.494200 
-2.604735 16.050943 4.477200 179.817136 -11.803410 169.734021 3.359507 2.667605 0.814967 -0.365094 -8.257994 11.334362 1.154729 5.644485 20.194924 1.262618 -2.871054 12.841721 7.137900 -15.447000 -49.394100 -4.320859 -1.380530 -3.124158 4.569690 6.888612 17.028521 -4.439339 -10.246017 32.243781 0.903273 -9.378076 -3.203272 -4.220600 12.448300 -37.337000 -0.782827 -1.800712 13.772630 0.890216 -2.554899 -4.049186 2.688225 -0.866194 -5.736024 -11.666820 -6.314589 -8.098780 9.537072 -9.653030 8.220990 4.305100 -4.502200 0.782900 -1.670751 -12.021951 2.857524 51.608121 -12.538312 -28.959590 25.803045 -39.627174 -6.461071 0.637431 -0.757516 -51.021972 47.484650 4.886398 6.879400 -7.125000 0.000000 0.000000 18.047900 38.676100 -2.924700 5.504377 11.069459 3.089563 -52.337720 16.141667 -34.249780 -29.791027 48.610198 -9.743951 -0.673466 0.665312 -62.864532 -49.929042 16.552205 -17.337900 7.125000 0.000000 0.000000 -14.534800 -7.751400 -12.873900 
-2.589742 16.321313 4.447213 -179.780860 -12.106877 170.299883 3.360775 2.763225 0.840042 -0.642881 -8.983556 12.260981 0.872570 4.778757 17.281246 0.400734 1.844623 16.209785 6.907600 -15.253600 -48.523800 -4.445547 -1.489631 -3.074807 6.031670 7.162004 16.977002 -4.321631 -9.879802 31.096411 1.327481 -12.580446 -0.653379 -3.814500 11.909400 -35.412100 -0.530384 -2.005426 12.642834 0.926546 -2.777875 -4.070395 2.625148 -0.989807 -5.258567 -11.220739 -6.339364 -8.712567 9.390511 -9.589168 8.561769 4.039000 -4.469700 0.981300 -1.503694 -11.954680 2.901616 49.568602 -12.389444 -26.991049 25.997211 -39.437815 -6.671972 0.577451 -0.855200 -51.000882 47.597882 6.236564 8.397400 -7.125000 0.000000 0.000000 18.612600 40.597600 -2.103700 5.439830 11.101039 2.987324 -49.583961 15.406518 -31.654944 -30.038450 48.137532 -9.986703 -0.612998 0.712540 -63.071377 -49.114626 15.841265 -16.234600 7.125000 0.000000 0.000000 -14.247300 -8.925300 -12.259900 
-2.569041 16.588683 4.422740 -179.359165 -12.588545 170.970622 3.346691 2.894777 0.838098 -0.727152 -9.341698 12.395016 0.742860 4.209472 15.066409 -0.454663 6.702585 19.456194 6.557600 -14.947700 -47.180400 -4.572967 -1.622501 -3.006313 7.406895 7.152024 16.536133 -4.249723 -9.601172 30.208009 1.749932 -15.753147 1.459067 -3.373300 11.276200 -33.217200 -0.325652 -2.258165 11.400952 0.972896 -3.076664 -4.087478 2.623122 -1.153530 -4.680810 -10.773696 -6.388140 -9.412415 9.236553 -9.551739 8.913808 3.764300 -4.447600 1.193800 -1.344661 -11.858502 2.957988 47.465543 -12.263904 -25.343124 26.105127 -39.166104 -6.852519 0.506057 -0.964936 -50.525225 47.556968 7.313891 9.575800 -7.125000 0.000000 0.000000 18.984800 42.107100 -1.411000 5.404675 11.107726 2.873054 -46.965230 14.564191 -29.302424 -30.246510 47.621671 -10.206044 -0.550220 0.756208 -63.112637 -48.370450 15.136470 -15.209100 7.125000 0.000000 0.000000 -13.988300 -10.042800 -11.698200 
-2.543503 16.859923 4.399717 -178.852565 -13.179179 171.683728 3.321706 3.052487 0.809860 -0.525216 -8.982657 11.531945 0.756526 4.002350 13.804221 -1.220772 11.274487 22.227701 6.110900 -14.535000 -45.425300 -4.713525 -1.784276 -2.916293 8.786790 6.826248 15.718127 -4.219991 -9.410668 29.596682 2.146181 -18.617635 3.112939 -2.979100 10.661100 -31.145400 -0.082090 -2.541326 10.119629 1.030163 -3.422608 -4.105501 2.648282 -1.341057 -4.086304 -10.310258 -6.423556 -10.080666 9.100030 -9.516436 9.212841 3.500200 -4.425400 1.358600 -1.199916 -11.751739 3.017724 45.380954 -12.144569 -23.864379 26.102509 -38.786184 -6.973995 0.428749 -1.078053 -49.732228 47.405353 8.061389 10.359600 -7.125000 0.000000 0.000000 19.167200 43.135500 -0.918100 5.401737 11.096418 2.776360 -44.355187 13.728087 -27.274365 -30.386950 47.051117 -10.388128 -0.478547 0.794669 -62.849753 -47.713652 14.584428 -14.418000 7.125000 0.000000 0.000000 -13.734600 -10.894200 -11.227200 
-2.515064 17.127391 4.381048 -178.370553 -13.840812 172.395386 3.294445 3.205003 0.758694 -0.237772 -7.827019 9.712264 0.889094 4.136019 13.589350 -1.801573 14.961625 24.293768 5.907700 -14.338300 -44.610300 -4.847811 -1.950559 -2.824226 10.036906 6.214173 14.639779 -4.218173 -9.300059 29.239905 2.493613 -20.951386 4.177541 -2.590000 9.999700 -28.975600 0.117237 -2.824570 8.885695 1.087528 -3.784232 -4.113405 2.677338 -1.536846 -3.443613 -9.861965 -6.461175 -10.772826 9.014848 -9.503306 9.467462 3.272100 -4.413000 1.511000 -1.080148 -11.629534 3.078765 43.336119 -12.028415 -22.678749 25.986134 -38.306950 -7.034346 0.343529 -1.184134 -48.622479 47.144524 8.441224 10.701500 -7.125000 0.000000 0.000000 19.133900 43.625900 -0.675100 5.419890 11.062966 2.692522 -41.757094 12.809625 -25.570978 -30.478195 46.427957 -10.546162 -0.399662 0.828078 -62.343694 -47.125903 14.116871 -13.769600 7.125000 0.000000 0.000000 -13.495000 -11.589100 -10.820900 
-2.484012 17.385765 4.367602 -177.858540 -14.568790 173.017995 3.271803 3.337864 0.700225 0.054836 -6.188257 7.263522 1.134897 4.565032 14.331174 -2.210083 17.830591 25.854423 5.641700 -14.071900 -43.526300 -4.981834 -2.117875 -2.735731 11.283629 5.370824 13.451381 -4.234375 -9.249841 29.096429 2.719600 -22.375128 4.793937 -2.324300 9.511100 -27.407600 0.336895 -3.121614 7.811724 1.147528 -4.173450 -4.118226 2.698166 -1.744771 -2.855537 -9.408501 -6.490123 -11.380793 8.943242 -9.499438 9.669694 3.059400 -4.406000 1.616800 -0.988181 -11.510633 3.149183 41.258602 -11.950920 -21.762792 25.756225 -37.733421 -7.038803 0.247506 -1.277626 -47.118574 46.765250 8.509750 10.659300 -7.125000 0.000000 0.000000 18.886300 43.655100 -0.651500 5.462873 11.026504 2.634657 -39.218064 11.878420 -24.152555 -30.476711 45.735271 -10.647325 -0.317354 0.852948 -61.680897 -46.689535 13.751931 -13.306500 7.125000 0.000000 0.000000 -13.318100 -12.089900 -10.528700 
-2.451703 17.636691 4.370020 -177.359714 -15.335774 173.491735 3.257960 3.438982 0.643032 0.215410 -4.307795 4.536344 1.469336 5.186098 15.771329 -2.523511 19.992967 26.780521 5.247100 -13.656800 -41.879500 -5.108009 -2.276911 -2.656396 12.443742 4.326592 12.204822 -4.256625 -9.249308 29.123284 2.739022 -22.649322 5.383537 -2.183000 9.237300 -26.540600 0.555277 -3.414623 7.126036 1.206813 -4.562913 -4.122199 2.738899 -1.949048 -2.424501 -9.004353 -6.514683 -11.946432 8.922312 -9.501347 9.801118 2.884400 -4.402600 1.722300 -0.917161 -11.420879 3.197935 39.272975 -11.743273 -20.836286 25.494912 -37.116942 -7.019766 0.151259 -1.362722 -45.659370 46.436051 8.394635 10.448300 -7.125000 0.000000 0.000000 18.633800 43.447000 -0.741600 5.518462 11.014183 2.596575 -36.815176 10.836377 -22.856888 -30.417662 44.991082 -10.707809 -0.237068 0.872052 -61.080753 -46.430017 13.457751 -12.993800 7.125000 0.000000 0.000000 -13.233400 -12.447300 -10.356600 
